<svg id="Capa_1" data-name="Capa 1" xmlns="http://www.w3.org/2000/svg" viewBox="0 0 502.72 491"><defs><style>.cls-1{fill:#fcfcfc;}.cls-2{fill:#0a2463;}</style></defs><title>instagramm</title><ellipse class="cls-1" cx="251.36" cy="245.5" rx="251.36" ry="245.5"/><path class="cls-2" d="M769.5,105.36c45.15,0,50.5.2,68.25,1,16.5.72,25.42,3.5,31.36,5.81a52.2,52.2,0,0,1,19.4,12.6,52.89,52.89,0,0,1,12.67,19.41c2.31,5.94,5.09,14.92,5.81,31.35.8,17.82,1,23.17,1,68.25s-.19,50.5-1,68.25c-.72,16.5-3.5,25.41-5.81,31.35a52.16,52.16,0,0,1-12.6,19.41,52.89,52.89,0,0,1-19.41,12.67c-5.94,2.31-14.92,5.09-31.35,5.81-17.82.79-23.17,1-68.25,1s-50.5-.2-68.25-1c-16.5-.72-25.41-3.5-31.35-5.81a52.24,52.24,0,0,1-19.41-12.6,52.89,52.89,0,0,1-12.67-19.41c-2.31-5.94-5.08-14.92-5.81-31.35-.79-17.82-1-23.17-1-68.25s.2-50.5,1-68.25c.73-16.5,3.5-25.41,5.81-31.35a52.16,52.16,0,0,1,12.6-19.41,53.06,53.06,0,0,1,19.41-12.67c5.94-2.31,14.92-5.09,31.35-5.81C719,105.56,724.36,105.36,769.5,105.36Zm0-30.43c-45.87,0-51.61.2-69.63,1s-30.3,3.7-41,7.85a86.93,86.93,0,0,0-49.51,49.44c-4.16,10.76-7.06,23-7.85,41s-1,23.83-1,69.7.2,51.62,1,69.64,3.69,30.3,7.85,41A86.54,86.54,0,0,0,658.81,404c10.76,4.16,23,7.06,41,7.85s23.76,1,69.64,1,51.61-.19,69.63-1,30.3-3.69,41-7.85a86.36,86.36,0,0,0,49.38-49.37c4.15-10.76,7.06-23,7.85-41s1-23.77,1-69.64-.2-51.62-1-69.64-3.7-30.29-7.85-41a79.25,79.25,0,0,0-19.34-30,82.71,82.71,0,0,0-29.91-19.47c-10.75-4.16-23-7.06-41-7.85s-23.83-1.06-69.71-1.06Z" transform="translate(-518.04 1.69)"/><path class="cls-2" d="M769.5,157.07a86.8,86.8,0,1,0,86.8,86.8A86.81,86.81,0,0,0,769.5,157.07Zm0,143.1a56.3,56.3,0,1,1,56.31-56.3,56.3,56.3,0,0,1-56.31,56.3Z" transform="translate(-518.04 1.69)"/><path class="cls-2" d="M900.06,159.29a21.72,21.72,0,1,1-21.72-21.72A21.71,21.71,0,0,1,900.06,159.29Z" transform="translate(-518.04 1.69)"/></svg>