<svg id="Capa_1" data-name="Capa 1" xmlns="http://www.w3.org/2000/svg" viewBox="0 0 502.72 491"><defs><style>.cls-1{fill:#fcfcfc;}.cls-2{fill:#0a2463;}</style></defs><title>twitterr</title><ellipse class="cls-1" cx="251.36" cy="245.5" rx="251.36" ry="245.5"/><path class="cls-2" d="M711.22,410.41c143.37,0,221.87-118.81,221.87-221.87,0-3.35,0-6.75-.24-10.1a158.38,158.38,0,0,0,38.91-40.37A154.91,154.91,0,0,1,927,150.35a78.16,78.16,0,0,0,34.29-43.11,155.85,155.85,0,0,1-49.49,18.91A78,78,0,0,0,779,197.23a221.46,221.46,0,0,1-160.7-81.47,78,78,0,0,0,24.14,104.09A77.48,77.48,0,0,1,607,210.12v1a78,78,0,0,0,62.57,76.43,78.31,78.31,0,0,1-35.21,1.33A78.15,78.15,0,0,0,707.2,343a156.17,156.17,0,0,1-96.79,33.44,145.38,145.38,0,0,1-18.55-1.15,219.69,219.69,0,0,0,119.36,35" transform="translate(-518.04 1.69)"/></svg>