<?xml version="1.0" encoding="utf-8"?>
<!-- Generator: Adobe Illustrator 24.0.2, SVG Export Plug-In . SVG Version: 6.00 Build 0)  -->
<svg version="1.1" id="Capa_1" xmlns="http://www.w3.org/2000/svg" xmlns:xlink="http://www.w3.org/1999/xlink" x="0px" y="0px"
	 viewBox="0 0 512 512" style="enable-background:new 0 0 512 512;" xml:space="preserve">
<style type="text/css">
	.st0{fill:#FCFCFC;}
	.st1{fill:#0A2463;}
</style>
<title></title>
<g id="icomoon-ignore">
</g>
<ellipse class="st0" cx="769.4" cy="243.8" rx="251.4" ry="245.5"/>
<path class="st1" d="M769.5,105.4c45.1,0,50.5,0.2,68.3,1c16.5,0.7,25.4,3.5,31.4,5.8c7.9,3,13.5,6.7,19.4,12.6
	c5.9,5.9,9.6,11.6,12.7,19.4c2.3,5.9,5.1,14.9,5.8,31.4c0.8,17.8,1,23.2,1,68.3s-0.2,50.5-1,68.3c-0.7,16.5-3.5,25.4-5.8,31.4
	c-3,7.9-6.7,13.5-12.6,19.4c-5.9,5.9-11.6,9.6-19.4,12.7c-5.9,2.3-14.9,5.1-31.4,5.8c-17.8,0.8-23.2,1-68.3,1s-50.5-0.2-68.3-1
	c-16.5-0.7-25.4-3.5-31.4-5.8c-7.9-3-13.5-6.7-19.4-12.6c-5.9-5.9-9.6-11.6-12.7-19.4c-2.3-5.9-5.1-14.9-5.8-31.4
	c-0.8-17.8-1-23.2-1-68.3s0.2-50.5,1-68.3c0.7-16.5,3.5-25.4,5.8-31.4c3-7.9,6.7-13.5,12.6-19.4c5.9-5.9,11.6-9.6,19.4-12.7
	c5.9-2.3,14.9-5.1,31.4-5.8C719,105.6,724.4,105.4,769.5,105.4z M769.5,74.9c-45.9,0-51.6,0.2-69.6,1c-18,0.8-30.3,3.7-41,7.9
	c-11.2,4.4-20.6,10.1-30,19.5c-9.4,9.4-15.2,18.8-19.5,29.9c-4.2,10.8-7.1,23-7.9,41c-0.8,18.1-1,23.8-1,69.7s0.2,51.6,1,69.6
	c0.8,18,3.7,30.3,7.9,41c4.4,11.2,10.1,20.6,19.5,30c9.4,9.4,18.8,15.2,29.9,19.5c10.8,4.2,23,7.1,41,7.9c18,0.8,23.8,1,69.6,1
	c45.9,0,51.6-0.2,69.6-1c18-0.8,30.3-3.7,41-7.9c11.1-4.3,20.5-10.1,29.9-19.5s15.2-18.8,19.5-29.9c4.2-10.8,7.1-23,7.9-41
	c0.8-18,1-23.8,1-69.6s-0.2-51.6-1-69.6c-0.8-18-3.7-30.3-7.9-41c-4.2-11.2-9.9-20.7-19.3-30c-9.4-9.4-18.8-15.2-29.9-19.5
	c-10.8-4.2-23-7.1-41-7.9C821.1,75.1,815.4,74.9,769.5,74.9C769.5,74.9,769.5,74.9,769.5,74.9z"/>
<path class="st1" d="M769.5,157.1c-47.9,0-86.8,38.9-86.8,86.8s38.9,86.8,86.8,86.8s86.8-38.9,86.8-86.8S817.4,157.1,769.5,157.1z
	 M769.5,300.2c-31.1,0-56.3-25.2-56.3-56.3s25.2-56.3,56.3-56.3s56.3,25.2,56.3,56.3S800.6,300.2,769.5,300.2L769.5,300.2z"/>
<path class="st1" d="M900.1,159.3c0,12-9.7,21.7-21.7,21.7s-21.7-9.7-21.7-21.7c0-12,9.7-21.7,21.7-21.7S900.1,147.3,900.1,159.3z"
	/>
</svg>
